<?xml version="1.0" encoding="UTF-8"?>
<svg width="81px" height="80px" viewBox="0 0 81 80" version="1.1" xmlns="http://www.w3.org/2000/svg" xmlns:xlink="http://www.w3.org/1999/xlink">
    <!-- Generator: Sketch 52.3 (67297) - http://www.bohemiancoding.com/sketch -->
    <title>Kategori 5</title>
    <desc>Created with Sketch.</desc>
    <defs>
        <rect id="path-1" x="0" y="0" width="80" height="80" rx="8"></rect>
    </defs>
    <g id="Page-1" stroke="none" stroke-width="1" fill="none" fill-rule="evenodd">
        <g id="Start-Screen" transform="translate(-147.000000, -452.000000)">
            <g id="Kategori-5" transform="translate(147.500000, 452.000000)">
                <g id="Oval">
                    <mask id="mask-2" fill="white">
                        <use xlink:href="#path-1"></use>
                    </mask>
                    <use id="Mask" fill="#FFFFFF" xlink:href="#path-1"></use>
                </g>
                <g id="bath-tube" transform="translate(3.000000, 10.000000)">
                    <circle id="Oval" fill="#E7F3F0" cx="37" cy="30" r="30"></circle>
                    <g id="bubble" transform="translate(8.000000, 7.000000)" fill="#C4E6F3" stroke="#414141">
                        <path d="M32.4859824,20.590494 C31.7331286,22.0230207 30.2306572,23 28.5,23 C26.0147186,23 24,20.9852814 24,18.5 C24,18.4882538 24.000045,18.4765182 24.0001349,18.4647932 C23.4117576,18.8051817 22.72863,19 22,19 C20.6614038,19 19.4763817,18.3424709 18.7502981,17.332777 C17.5678894,18.949732 15.6565963,20 13.5,20 C9.91014913,20 7,17.0898509 7,13.5 C7,9.91014913 9.91014913,7 13.5,7 C14.3972877,7 15.2521105,7.18181337 16.0296382,7.51060975 C16.1862162,6.22705714 16.9507724,5.13124274 18.0265903,4.51988294 C17.4042677,4.06515221 17,3.32978699 17,2.5 C17,1.11928813 18.1192881,0 19.5,0 C20.8807119,0 22,1.11928813 22,2.5 C22,3.16672121 21.7390097,3.77248487 21.3136214,4.22069874 C22.8774994,4.76420965 24,6.2510178 24,8 C24,9.2188117 23.4548839,10.3103047 22.5951561,11.0439746 C23.5495215,11.1863365 24.3937649,11.6658265 25.0028517,12.35741 C25.0776568,10.4905266 26.6147628,9 28.5,9 C30.4329966,9 32,10.5670034 32,12.5 C32,13.3962945 31.6630936,14.2139003 31.1090116,14.8330867 C31.4616648,15.0844512 31.7765179,15.3854178 32.0433869,15.7258024 C32.5686759,15.2734572 33.2524033,15 34,15 C35.6568542,15 37,16.3431458 37,18 C37,19.6568542 35.6568542,21 34,21 C33.4477732,21 32.9303955,20.8507929 32.4859824,20.590494 Z" id="Combined-Shape"></path>
                        <circle id="Oval" cx="58" cy="10" r="2"></circle>
                        <circle id="Oval" cx="39" cy="6" r="2"></circle>
                        <circle id="Oval" cx="3" cy="4" r="3"></circle>
                        <path d="M50.9997946,19.9645262 C50.9999314,19.9763345 51,19.9881592 51,20 C51,21.6568542 49.6568542,23 48,23 C46.3431458,23 45,21.6568542 45,20 C45,18.3431458 46.3431458,17 48,17 C48.0118408,17 48.0236655,17.0000686 48.0354738,17.0002054 C48.0120961,16.8368385 48,16.6698319 48,16.5 C48,14.5670034 49.5670034,13 51.5,13 C53.4329966,13 55,14.5670034 55,16.5 C55,18.4329966 53.4329966,20 51.5,20 C51.3301681,20 51.1631615,19.9879039 50.9997946,19.9645262 Z M57.5,21 C56.1192881,21 55,19.8807119 55,18.5 C55,17.1192881 56.1192881,16 57.5,16 C58.8807119,16 60,17.1192881 60,18.5 C60,19.8807119 58.8807119,21 57.5,21 Z" id="Combined-Shape"></path>
                    </g>
                    <path d="M4.01084056,20.55518 C4.48963746,22.246402 5.37315143,43.440203 14.3049739,46.8998541 C23.2367963,50.3595053 58.11489,49.4945925 64.8180465,44.6757927 C71.5212031,39.8569928 72,26.1419471 72,25.4005932 C72,24.6592394 54.6350284,32.194745 36.808428,26.6361829 C18.9818277,21.0776209 3.53204367,18.863958 4.01084056,20.55518 Z" id="Path-20" fill="#FFFFFF"></path>
                    <path d="M4.01084056,20.55518 C4.01084056,25 16.6099477,56.7997083 14.3049739,46.8998541 C12,37 8,19.248465 17,21.5 C20.7206258,22.430791 25,23.5 16.5,20 C12.1100131,18.1923583 4.01084056,17.9478613 4.01084056,20.55518 Z" id="Path-20" fill="#EEEEEE"></path>
                    <path d="M5.03911735,21.0368462 C5.31527869,23.3364338 6.28934378,30.1957718 7.16404013,33.6676798 C8.8309984,40.2842911 11.3058883,44.6657931 14.6661651,45.9673624 C23.7767187,49.4962433 58.1279692,48.2536074 64.2343381,43.8638293 C67.9321571,41.2055221 70.1509968,36.0740113 70.8210384,28.4017536 C70.8690878,27.8515525 70.4620135,27.3665746 69.9118124,27.3185252 C69.7756346,27.3066327 69.6384645,27.3227854 69.5087742,27.3659856 C58.6441758,30.9850157 47.6347318,31.0594491 36.5107508,27.5908495 C28.2699117,25.0212504 19.9582543,22.9942277 13.3756765,21.862554 C10.442807,21.3583364 8.02358948,21.0651807 6.39254812,21.0095995 C5.82143247,20.9901375 5.36317253,21.0009908 5.03911735,21.0368462 Z M4.99990983,20.5093389 C5.00263328,20.4341483 4.99422209,20.3576542 4.97302437,20.2827789 C4.96201593,20.2438946 4.95979012,20.2689554 4.96556803,20.3501975 Z" id="Path-20" stroke="#414141" stroke-width="2"></path>
                    <path d="M60.5,43 L63.1946557,47.9465943 C63.4588549,48.4315863 63.279867,49.0389257 62.794875,49.303125 C62.6481045,49.3830782 62.483635,49.4249693 62.3165,49.4249693 L62.25,49.4249693 C61.1345497,49.4249693 60.0699536,48.9583716 59.3139917,48.1381576 L55.5,44" id="Path-26" stroke="#414141" stroke-width="2" fill="#DDDDDD" stroke-linecap="round"></path>
                    <path d="M18,44 L20.6946557,48.9465943 C20.9588549,49.4315863 20.779867,50.0389257 20.294875,50.303125 C20.1481045,50.3830782 19.983635,50.4249693 19.8165,50.4249693 L19.75,50.4249693 C18.6345497,50.4249693 17.5699536,49.9583716 16.8139917,49.1381576 L13,45" id="Path-26" stroke="#414141" stroke-width="2" fill="#DDDDDD" stroke-linecap="round" transform="translate(17.250000, 47.212485) scale(-1, 1) translate(-17.250000, -47.212485) "></path>
                    <path d="M32.2444481,42.6148349 C32.2933325,42.6183156 32.3581336,42.6206934 32.43861,42.6191072 C32.9368654,42.6092862 33.4342082,42.5065202 34.976538,42.126486 C35.1831754,42.0755699 35.3340591,42.0387756 35.4838691,42.0029718 C37.4519877,41.5326016 38.5965025,41.4135029 39.595073,41.7879668 C42.3077705,42.8052284 42.3151,46.100445 40.1562081,48.3639262 C37.8657658,50.7653311 34.1427781,51.1889263 30.307495,48.9104288 C28.5762446,47.8819129 28.2453795,46.8507927 28.3744175,44.7831048 C28.4620216,43.3793499 28.343794,42.7913951 27.5900374,41.9876298 C26.1183499,40.9645387 25.1769385,40.2883795 24.7442545,39.9422324 C24.6043978,39.830347 24.5057601,39.7445083 24.4271138,39.6602833 C24.2698331,39.491846 24.1835467,39.3682682 24.14038,39.0881331 C24.1712555,38.4481483 24.1712555,38.4481483 24.7562243,38.0010556 C25.1576993,37.9113428 25.1576993,37.9113428 25.3157049,37.9408878 C25.5514739,37.9804545 25.7449274,38.0772869 26.234497,38.3528815 C26.4173138,38.455795 26.7119428,38.3889941 27.3102794,38.0247159 C27.4603821,37.9333307 27.5987092,37.8432157 27.861945,37.6674357 C28.9430921,36.9454822 29.3750549,36.7100117 30.0608038,36.6205704 C31.1445662,36.4792167 32.0319143,37.0641576 32.6383767,38.2770824 C32.7965408,38.5934106 32.8773056,38.9143646 32.8835558,39.2476395 C32.88898,39.5368671 32.8416989,39.8054972 32.7475789,40.1274882 C32.7079413,40.2630909 32.5495311,40.7426572 32.5197631,40.8394437 C32.3437584,41.4116977 32.2519353,41.9336638 32.2444481,42.6148349 Z" id="Path-10" stroke="#414141" stroke-width="2" fill="#FFDB9F" transform="translate(32.915781, 43.504595) rotate(13.000000) translate(-32.915781, -43.504595) "></path>
                    <path d="M2.95945335,23.6742197 C1.61424086,23.9852963 0.271553277,23.1469635 -0.0395233004,21.801751 C-0.350599878,20.4565385 0.487732918,19.1138509 1.83294541,18.8027744 C6.4171385,17.7426927 10.9981908,18.5807167 27.7535069,23.3151875 C28.5535526,23.5412527 29.1551993,23.7107063 29.7277633,23.8711903 C38.2950995,26.2725298 43.024599,27.3437733 47.1625322,27.7871232 C56.0347159,28.7377144 64.4011218,27.3174484 72.3143717,23.5190885 C73.5591153,22.9216116 75.0525301,23.4463249 75.650007,24.6910685 C76.2474839,25.935812 75.7227706,27.4292268 74.478027,28.0267038 C65.7246436,32.2283278 56.4243846,33.8080817 46.6298666,32.758669 C42.1544597,32.2791611 37.2381436,31.1689688 28.3783186,28.6856476 C27.8020598,28.5241279 27.1972917,28.3537955 26.3939152,28.1267892 C10.9872177,23.7733912 6.35746974,22.8884381 2.95945335,23.6742197 Z" id="Path-14" stroke="#414141" stroke-width="2" fill="#FFFFFF" fill-rule="nonzero"></path>
                </g>
            </g>
        </g>
    </g>
</svg>