<?xml version="1.0" encoding="UTF-8"?>
<svg width="17px" height="18px" viewBox="0 0 17 18" version="1.1" xmlns="http://www.w3.org/2000/svg" xmlns:xlink="http://www.w3.org/1999/xlink">
    <!-- Generator: Sketch 52.3 (67297) - http://www.bohemiancoding.com/sketch -->
    <title>Combined Shape</title>
    <desc>Created with Sketch.</desc>
    <g id="Symbols" stroke="none" stroke-width="1" fill="none" fill-rule="evenodd">
        <g id="lonceng" fill="#FFFFFF">
            <path d="M10.5272144,2.3679584 C12.8248044,2.59799174 14.6186886,4.53718759 14.6186886,6.89536754 L14.6186886,9.59502576 C14.6186886,10.8007302 14.9819402,11.9784666 15.6610883,12.9747001 L15.980611,13.4434038 C16.2917015,13.8997384 16.1739579,14.5218592 15.7176233,14.8329496 C15.5515844,14.946141 15.355295,15.0066829 15.1543443,15.0066829 L1.94486121,15.0066829 C1.39257646,15.0066829 0.944861213,14.5589676 0.944861213,14.0066829 C0.944861213,13.8057322 1.00540314,13.6094428 1.11859449,13.4434038 L1.43811722,12.9747001 C2.11726531,11.9784666 2.48051686,10.8007302 2.48051686,9.59502576 L2.48051686,6.89536754 C2.48051686,4.53718759 4.27440106,2.59799174 6.57199106,2.3679584 C6.54223943,2.23464718 6.52657412,2.09627759 6.52657412,1.95437453 C6.52657412,0.87536774 7.43231489,0.000659908063 8.54960275,0.000659908063 C9.66689061,0.000659908063 10.5726314,0.87536774 10.5726314,1.95437453 C10.5726314,2.09627759 10.5569661,2.23464718 10.5272144,2.3679584 Z M6.16167249,15.6562024 L11.0169412,15.6562024 L11.0169412,16.0006599 C11.0169412,17.1052294 10.1215107,18.0006599 9.01694121,18.0006599 L8.16167249,18.0006599 C7.05710299,18.0006599 6.16167249,17.1052294 6.16167249,16.0006599 L6.16167249,15.6562024 Z" id="Combined-Shape"></path>
        </g>
    </g>
</svg>