<?xml version="1.0" encoding="UTF-8"?>
<svg width="25px" height="24px" viewBox="0 0 25 24" version="1.1" xmlns="http://www.w3.org/2000/svg" xmlns:xlink="http://www.w3.org/1999/xlink">
    <!-- Generator: Sketch 52.3 (67297) - http://www.bohemiancoding.com/sketch -->
    <title>cart</title>
    <desc>Created with Sketch.</desc>
    <g id="Symbols" stroke="none" stroke-width="1" fill="none" fill-rule="evenodd">
        <g id="Bar-Menu" transform="translate(-176.000000, -7.000000)">
            <g id="Cart" transform="translate(165.000000, 6.000000)">
                <g id="cart" transform="translate(10.040902, 0.011737)">
                    <path d="M2.97705706,1.98826331 C2.97258746,1.98826997 2.97258746,1.98826997 2.96811798,1.98830327 C2.4158553,1.99324019 1.9721601,2.44493971 1.97709702,2.9972024 L1.99313275,4.79102003 C1.99803849,5.3397951 2.4442958,5.78208095 2.99309279,5.78208095 L5.40912032,5.78208095 L8.05531174,17.4253232 C8.262261,18.3358999 9.07177979,18.9820809 10.0055774,18.9820809 L21.2267513,18.9820809 C22.0946544,18.9820809 22.8635047,18.4223219 23.1300768,17.5963709 L24.7418096,12.6025533 C24.8058651,12.4040827 24.8384841,12.1968146 24.8384841,11.9882633 C24.8384841,10.8836938 23.9430536,9.98826331 22.8384841,9.98826331 L10.9590983,9.98826331 L9.51031778,3.54923892 C9.30498253,2.63663779 8.49451443,1.98826331 7.55909827,1.98826331 L2.97705706,1.98826331 Z" id="Path-15" stroke="#414141" stroke-width="2"></path>
                    <circle id="Oval" fill="#414141" cx="11.8108918" cy="22.3820809" r="2.4"></circle>
                    <circle id="Oval" fill="#414141" cx="20.1581074" cy="22.3820809" r="2.4"></circle>
                </g>
            </g>
        </g>
    </g>
</svg>