<?xml version="1.0" encoding="UTF-8"?>
<svg width="101px" height="101px" viewBox="0 0 101 101" version="1.1" xmlns="http://www.w3.org/2000/svg" xmlns:xlink="http://www.w3.org/1999/xlink">
    <!-- Generator: Sketch 52.3 (67297) - http://www.bohemiancoding.com/sketch -->
    <title>face</title>
    <desc>Created with Sketch.</desc>
    <defs>
        <path d="M1.9904897,1.74923391 C7.01219512,4.26829268 16.3109756,-0.914634146 16.9026304,0.223542952 C17.8870982,2.11738141 10.5182927,24.695122 1.24319436,5.47327048 C0.886543544,4.73414203 0.453952415,3.78289162 0.208887853,2.88750421" id="path-1"></path>
        <path d="M4.55544791,0.607291583 C8.00466897,3.2195719 6.31730214,18.2866097 2.01927566,11.2593488 C-2.27875081,4.23208794 1.10622686,-2.00498873 4.55544791,0.607291583 Z" id="path-3"></path>
        <path d="M4.55544791,0.607291583 C8.00466897,3.2195719 6.31730214,18.2866097 2.01927566,11.2593488 C-2.27875081,4.23208794 1.10622686,-2.00498873 4.55544791,0.607291583 Z" id="path-5"></path>
    </defs>
    <g id="Symbols" stroke="none" stroke-width="1" fill="none" fill-rule="evenodd">
        <g id="face" transform="translate(1.000000, 0.000000)">
            <g transform="translate(49.000000, 50.500000) scale(-1, 1) translate(-49.000000, -50.500000) translate(0.000000, 0.000000)">
                <path d="M28.3598489,6.71425445 C-5,8.8817842e-16 1.5,51.5 4,57.5 C6.5,63.5 13.7570062,80.6585366 10,96 C9.84178286,96.6460682 24.5603491,92.1620761 28.3708571,92.504386 C32.6314,92.887124 75.7621951,86.2804878 93.445122,74.695122 C96.6635127,72.5865211 100.114019,70.1219512 96.1890244,69.0676059 C92.2640295,68.0132605 82.6219512,61.1280488 78.8109756,47.8913067 C74.2416776,32.0206672 78.8109756,6.71425445 52.1341463,1.23861933 C40.9534465,-1.05630981 33.0286807,0.768901903 28.3598489,6.71425445 Z" id="Path-2" fill="#72706D"></path>
                <path d="M7.16372521,39.7865854 C8.96634902,49.0468997 15.3963415,78.8109756 22.7134146,88.8719512 C26.1826185,93.6421066 31.3781179,97.4424964 35.2134146,98.7804878 C42.7577122,101.412411 53.0121951,99.4268293 58.5,91.5 C63.9878049,83.5731707 66.0613336,77.2605828 66.5,71 C66.6609307,68.7032203 67.7043433,31.7199606 65.5,30.7066119 C61.9696109,29.0836727 49.0853659,37.347561 33.9939024,39.7865854 C23.9329268,41.4126016 14.9895344,41.4126016 7.16372521,39.7865854 Z" id="Path-8" fill="#FADBCF"></path>
                <g id="Line" transform="translate(0.000000, 1.219512)">
                    <path d="M7.00090893,38.3027643 C6.90472078,42.361704 14.4704211,69.8576423 16.6045675,76.1076423 C20.7384702,88.2140719 32.9930648,103.791365 48.5731939,95.9183797 C57.610665,91.3515448 65.4869005,79.6264756 66,68.2804878 C66.6048428,54.9058141 66.6048428,41.2804878 65,28.8756666" id="Path" stroke="#4A4A4A" stroke-width="2" stroke-linecap="round"></path>
                    <path d="M29.1875636,5.33536585 C29.0184196,2.15545866 7.44551951,0.226953381 3.02128231,18.445122 C-0.444518096,32.7166298 -1.52439024,40.5487805 3.02128231,57.0121951 C6.07049323,68.0557587 12.6172979,82.6030349 7.44551951,93.1402439 C7.03788463,93.9707772 15.8039647,92.4830995 24.5,91.2804878" id="Path-3" stroke="#4A4A4A" stroke-width="2" stroke-linecap="round"></path>
                    <path d="M29.1875636,5.94512195 C30.4868012,-1.50218407 47.2700692,0.00167201896 51.7252118,0.447136049 C71.6463415,2.43902439 72.2961695,23.6104646 73.7804878,30.2643089 C75.2648061,36.9181532 78.5,70.7804878 97.9405921,72.2804878 C98.1501659,72.2966581 78.5,81.7804878 62.5,85.7804878" id="Path-4" stroke="#4A4A4A" stroke-width="2" stroke-linecap="round"></path>
                    <path d="M23.651432,49.6602216 C19.8170732,52.4390244 20.2051659,59.2626377 20.2615013,60.6768299 C20.5437425,67.7619569 26.2758151,70.593346 28.8522876,62.5899415 C29.6834575,60.0080437 29.1875636,51.8292683 24.7231507,49.6602216" id="Path-5" stroke="#4A4A4A" fill="#FFFFFF" stroke-linecap="round" transform="translate(24.704916, 58.544314) rotate(-6.000000) translate(-24.704916, -58.544314) "></path>
                    <path d="M48.0416759,48.1358314 C44.2073171,50.9146341 44.5954098,57.7382475 44.6517452,59.1524397 C44.9339864,66.2375667 50.666059,69.0689558 53.2425315,61.0655513 C54.0737014,58.4836534 53.5778075,50.304878 49.1133946,48.1358314" id="Path-5" stroke="#4A4A4A" fill="#FFFFFF" stroke-linecap="round" transform="translate(49.095160, 57.019923) rotate(-6.000000) translate(-49.095160, -57.019923) "></path>
                    <g id="Path-11" transform="translate(31.402439, 72.865854)">
                        <mask id="mask-2" fill="white">
                            <use xlink:href="#path-1"></use>
                        </mask>
                        <use id="Mask" fill="#F38777" xlink:href="#path-1"></use>
                        <path d="M16.8553831,5.00278084 C11.2804878,4.72560976 8.82639295,7.25044016 7.37435921,8.60082791 C6.08181893,9.80288714 5.53554142,13.5161834 6.73329354,14.9593823 C9.26244017,18.0068087 14.5827628,12.6395217 15.4667517,10.8295238 C16.0192452,9.69827437 16.4821223,7.75602672 16.8553831,5.00278084 Z" fill="#FAAC9E" mask="url(#mask-2)"></path>
                    </g>
                    <path d="M33.3929287,74.6150876 C38.4146341,77.1341463 47.7134146,71.9512195 48.3050695,73.0893966 C49.2895372,74.9832351 41.9207317,97.5609756 32.6456334,78.3391241 C32.2889826,77.5999957 31.8563914,76.6487453 31.6113269,75.7533579" id="Path-7" stroke="#4A4A4A" stroke-linecap="round"></path>
                    <path d="M12.852195,31.432604 C12.4353037,36.844522 12.852195,44.6189122 16.1000276,45.4152083 C22.4618126,46.974976 22.8743592,33.3299158 22.6353685,29.123351 C22.4323559,25.5500505 22.1939757,33.6423784 22.1939757,35.9612196 C22.1939757,44.3140342 25.4625531,44.1251525 26.0023769,44.1615952 C27.3945713,44.2555799 29.3247339,40.7324934 29.370948,40.4898352 C29.7501972,38.4984978 29.8279316,36.4544902 29.8520166,34.4275036 C29.8681566,33.0691566 29.7549734,29.0355869 29.4912151,30.3681779 C28.925653,33.2255781 28.2962082,42.0695558 32.4978935,43.538669 C33.4323202,43.86539 34.9962793,44.1615952 36.0662318,43.286356 C37.5812435,42.0470509 41.9401035,33.7246845 39.9154001,28.3837701 C39.1768749,26.4356331 40.3441606,33.3577243 40.75727,35.816775 C41.0205903,37.3841997 41.3089307,38.9772102 41.9401035,40.4359009 C42.2172562,41.0764229 42.7112489,42.0831871 43.3408372,42.3843525 C44.0527761,42.7249105 45.131444,42.7493032 45.7489761,42.257886 C46.554469,41.6168941 46.5777697,40.340056 46.6912753,39.3169206 C46.9951795,36.5775383 47.1649241,33.8045791 46.9919431,31.0538245 C46.858795,28.936495 45.9512629,35.3025175 46.5710081,37.4044252 C48.5633525,44.1615952 49.7828647,44.1615952 51.0023769,44.1615952 C58.5221043,44.1615952 56.7867837,29.9382267 54.8700604,26.2363198" id="Path-6" stroke="#4A4A4A" stroke-width="2" fill="#72706D" stroke-linecap="round" transform="translate(34.619966, 35.887543) rotate(-3.000000) translate(-34.619966, -35.887543) "></path>
                    <path d="M7.16372521,38.7804878 C8.05457507,40.1138211 9.83333333,40.1138211 12.5,38.7804878" id="Path-13" stroke="#4A4A4A" stroke-width="2" stroke-linecap="round"></path>
                    <path d="M58.0825934,30.5586092 C60.2492601,31.4122677 62.4159268,30.9059054 64.5825934,29.0395222" id="Path-13" stroke="#4A4A4A" stroke-width="2" stroke-linecap="round" transform="translate(61.332593, 30.000000) rotate(-6.000000) translate(-61.332593, -30.000000) "></path>
                </g>
                <path d="M18.3058886,51.7385807 C21.3901077,48.5822025 24.0053376,48.0547509 28.4464862,48.1029749" id="Path-9" stroke="#4A4A4A" stroke-linecap="round" transform="translate(23.376187, 49.919331) rotate(8.000000) translate(-23.376187, -49.919331) "></path>
                <path d="M43.8811335,48.5564992 C46.2524031,45.96097 49.3529137,46.3911556 52.3327124,46.8924961" id="Path-10" stroke="#4A4A4A" stroke-linecap="round"></path>
                <g id="Path-12" transform="translate(21.341463, 53.658537)">
                    <mask id="mask-4" fill="white">
                        <use xlink:href="#path-3"></use>
                    </mask>
                    <use id="Mask" fill="#77504B" xlink:href="#path-3"></use>
                    <path d="M-3.04878049,0.953091792 L7.84731873,-1.52439024 C9.39856089,4.30497925 9.82456875,7.219664 9.12534229,7.219664 C8.07650261,7.219664 -1.44087857,8.67700638 -1.85146926,8.09406943 C-2.1251964,7.70544479 -2.52430014,5.32511892 -3.04878049,0.953091792 Z" fill="#44362D" mask="url(#mask-4)"></path>
                    <path d="M3.90585217,3.37495265 C5.71381551,4.77498601 4.84302047,12.831468 2.58698886,9.06954731 C0.330957254,5.30762659 2.09788883,1.97491929 3.90585217,3.37495265 Z" id="Mask" fill="#000000"></path>
                </g>
                <ellipse id="Oval" fill="#FFFFFF" transform="translate(22.103659, 61.737805) rotate(-6.000000) translate(-22.103659, -61.737805) " cx="22.1036585" cy="61.7378049" rx="1.06707317" ry="1"></ellipse>
                <g id="Path-12" transform="translate(45.731707, 52.439024)">
                    <mask id="mask-6" fill="white">
                        <use xlink:href="#path-5"></use>
                    </mask>
                    <use id="Mask" fill="#77504B" xlink:href="#path-5"></use>
                    <path d="M-3.04878049,0.953091792 L7.84731873,-1.52439024 C9.39856089,4.30497925 9.82456875,7.219664 9.12534229,7.219664 C8.07650261,7.219664 -1.44087857,8.67700638 -1.85146926,8.09406943 C-2.1251964,7.70544479 -2.52430014,5.32511892 -3.04878049,0.953091792 Z" fill="#44362D" mask="url(#mask-6)"></path>
                    <path d="M3.90585217,3.37495265 C5.71381551,4.77498601 4.84302047,12.831468 2.58698886,9.06954731 C0.330957254,5.30762659 2.09788883,1.97491929 3.90585217,3.37495265 Z" id="Mask" fill="#000000"></path>
                </g>
                <path d="M49.6375595,55.813977 C51.4455228,57.2140104 50.5747278,65.2704924 48.3186962,61.5085717 C46.0626646,57.746651 47.8295961,54.4139437 49.6375595,55.813977 Z" id="Mask" fill="#000000"></path>
                <ellipse id="Oval" fill="#FFFFFF" transform="translate(46.493902, 60.518293) rotate(-6.000000) translate(-46.493902, -60.518293) " cx="46.4939024" cy="60.5182927" rx="1.06707317" ry="1"></ellipse>
            </g>
        </g>
    </g>
</svg>