<?xml version="1.0" encoding="UTF-8"?>
<svg width="80px" height="80px" viewBox="0 0 80 80" version="1.1" xmlns="http://www.w3.org/2000/svg" xmlns:xlink="http://www.w3.org/1999/xlink">
    <!-- Generator: Sketch 52.3 (67297) - http://www.bohemiancoding.com/sketch -->
    <title>Kategori 3</title>
    <desc>Created with Sketch.</desc>
    <defs>
        <rect id="path-1" x="0" y="0" width="80" height="80" rx="8"></rect>
    </defs>
    <g id="Page-1" stroke="none" stroke-width="1" fill="none" fill-rule="evenodd">
        <g id="Start-Screen" transform="translate(-279.000000, -334.000000)">
            <g id="Kategori-3" transform="translate(279.000000, 334.000000)">
                <g id="Oval">
                    <mask id="mask-2" fill="white">
                        <use xlink:href="#path-1"></use>
                    </mask>
                    <use id="Mask" fill="#FFFFFF" xlink:href="#path-1"></use>
                </g>
                <g id="food-maker" transform="translate(1.000000, 9.500000)">
                    <circle id="Oval" fill="#E7F3F0" cx="39" cy="31" r="30"></circle>
                    <path d="M14.7721025,5.82042254 L23.0497234,5.82042254 C29.0369806,5.82042254 34.1081717,10.2337256 34.9348017,16.1636439 L37.9014916,37.445511 C38.7281215,43.3754293 43.7993126,47.7887324 49.7865698,47.7887324 L66.9338206,47.7887324 C67.7643215,47.7887324 68.5084063,48.3019871 68.8034008,49.0783311 L69.8363015,51.796641 C70.2286453,52.8291816 69.7096632,53.9842786 68.6771226,54.3766224 C68.4501995,54.4628485 68.2094744,54.5070423 67.9667213,54.5070423 L0.204225352,54.5070423 L2.80074184,16.9918558 C3.2361435,10.7010525 8.4662496,5.82042254 14.7721025,5.82042254 Z" id="Path-15" fill="#B8E986"></path>
                    <path d="M1.5,52.5 L3.89316675,18.4043724 C4.3343726,12.1184793 9.56235764,7.24458341 15.8637158,7.24458341 L19.5,7.24458341 L19.5,7.24458341 C12.4638269,6.83225331 6.41589607,12.1805406 5.96443564,19.2143114 C4.7528381,38.0904375 4.14705882,49.1856679 4.14705882,52.5 C4.14705882,56.5 3.26470588,56.5 1.5,52.5 Z" id="Path-24" fill="#FFFFFF"></path>
                    <path d="M1.27583008,53.5070423 L67.7929432,53.5070423 C67.892526,53.5070423 67.9915502,53.4921676 68.0867383,53.4629107 C68.6146498,53.3006522 68.9110702,52.7411588 68.7488117,52.2132472 L67.9749669,49.6955269 C67.8467425,49.2783462 67.4627744,48.9925106 67.0263442,48.9893482 L49.7028903,48.8638234 C43.2526353,48.8170852 37.8121607,44.0476579 36.9215836,37.6590082 L33.9443785,16.3017088 C33.1866343,10.8659503 28.5380425,6.82042254 23.0497234,6.82042254 L14.7721025,6.82042254 C8.99173734,6.82042254 4.19747342,11.2943333 3.79835523,17.060903 L1.27583008,53.5070423 Z" id="Path-15" stroke="#414141" stroke-width="2"></path>
                    <path d="M1,53.035379 L1,55.0176895 C1,56.1124893 1.88751065,57 2.98231052,57 L67.088112,57 C68.1829119,57 69.0704225,56.1124893 69.0704225,55.0176895 L69.0704225,53.035379 L1,53.035379 Z" id="Rectangle" stroke="#414141" stroke-width="2" fill="#FFF9A9"></path>
                    <circle id="Oval" stroke="#414141" fill="#FFFFFF" cx="23.3838028" cy="35.7640845" r="6.13732394"></circle>
                    <circle id="Oval" stroke="#414141" fill="#F4F4F4" cx="23.3838028" cy="35.7640845" r="3.91197183"></circle>
                    <path d="M15.7816901,-1.77635684e-15 L22.7816901,-1.77635684e-15 C24.9908291,-2.18216909e-15 26.7816901,1.790861 26.7816901,4 L26.7816901,6 C26.7816901,7.1045695 25.8862596,8 24.7816901,8 L13.7816901,8 C12.6771206,8 11.7816901,7.1045695 11.7816901,6 L11.7816901,4 C11.7816901,1.790861 13.5725511,-1.37054459e-15 15.7816901,-1.77635684e-15 Z" id="Rectangle" fill="#B8E986"></path>
                    <path d="M12.7816901,1 C11.1248359,1 9.78169014,2.34314575 9.78169014,4 L9.78169014,6 C9.78169014,6.55228475 10.2294054,7 10.7816901,7 L25.7816901,7 C26.3339749,7 26.7816901,6.55228475 26.7816901,6 L26.7816901,4 C26.7816901,2.34314575 25.4385444,1 23.7816901,1 L12.7816901,1 Z" id="Rectangle" stroke="#414141" stroke-width="2"></path>
                    <path d="M35.5,30.7296729 C39.2575758,30.5362045 42.3955043,30.7940518 44.9137857,31.5032147 C48.6912079,32.5669591 51.8063343,30.1619718 56.1140174,30.1619718 C60.4217006,30.1619718 59.8779343,31.9223532 63.0434272,31.9223532 C65.1537559,31.9223532 66.3059468,31.5524255 66.5,30.8125703 L65.5606061,48.5 L50.2728936,48.5 C43.3874556,48.5 37.5241727,43.4932959 36.4456945,36.6928443 L35.5,30.7296729 Z" id="Path-16" fill="#FFDB9F"></path>
                    <circle id="Oval" fill="#000000" opacity="0.296174" cx="49" cy="46" r="1"></circle>
                    <circle id="Oval" fill="#000000" opacity="0.296174" cx="52" cy="42" r="1"></circle>
                    <circle id="Oval" fill="#000000" opacity="0.296174" cx="53" cy="46" r="1"></circle>
                    <circle id="Oval" fill="#000000" opacity="0.296174" cx="59" cy="46" r="1"></circle>
                    <circle id="Oval" fill="#000000" opacity="0.296174" cx="56" cy="44" r="1"></circle>
                    <circle id="Oval" fill="#000000" opacity="0.296174" cx="61" cy="42" r="1"></circle>
                    <circle id="Oval" fill="#000000" opacity="0.296174" cx="47" cy="42" r="1"></circle>
                    <path d="M34.1398744,16.7253521 L36.8926719,37.6922777 C37.7421375,44.1623079 43.2564989,49 49.782055,49 L65.5627254,49 L67.6549078,16.7253521 L34.1398744,16.7253521 Z" id="Path-16" stroke="#414141" stroke-width="2"></path>
                    <path d="M34.6934229,16.6232394 L67.7981691,16.6232394 C67.9466909,11.8951139 64.3164077,7.86834806 59.560454,7.56173186 C57.139589,7.40566369 54.3090167,7.32746479 51.0700173,7.32746479 C47.7755836,7.32746479 44.8996157,7.40836345 42.4434697,7.56981208 C42.1047181,7.59208019 41.7676448,7.63503846 41.4341363,7.69844649 C37.1870407,8.50592193 34.3109105,12.4055091 34.6934229,16.6232394 Z" id="Path-18" stroke="#414141" stroke-width="2"></path>
                    <path d="M36,12.0129923 L53.915493,12.0129923" id="Path-19" stroke="#414141" stroke-linecap="round"></path>
                    <path d="M61,12.0129923 L66.5,12.0129923" id="Path-19" stroke="#414141" stroke-linecap="round"></path>
                    <path d="M56.1716221,12.0129923 L57.7937858,12.0129923" id="Path-19" stroke="#414141" stroke-linecap="round"></path>
                    <path d="M67.4629176,17.9697885 L67.2878271,21.8681979 C69.7250173,21.754548 72.0230921,23.2940671 72.7685851,25.7347308 C72.9474148,26.3201999 73.0266681,26.931541 73.0030396,27.5432565 L72.757394,33.902759 C72.6040163,37.8735453 69.9446856,41.273433 66.1970493,42.4145999 L66.0529861,45.4189639 L68.2948159,45.2523109 C72.0852126,44.9705405 75.1540758,42.0606927 75.6369309,38.2906326 L76.8524145,28.8003206 C77.5267134,23.5354968 73.8053577,18.7208866 68.5405339,18.0465877 C68.1828219,18.0007733 67.8230468,17.9751591 67.4629176,17.9697885 Z" id="Path-21" stroke="#414141" stroke-width="2"></path>
                    <path d="M46.584507,34.3485915 C46.584507,34.3485915 46.584507,32.0320864 46.584507,27.399076 L55.8767606,27.399076 L55.8767606,34.3485915" id="Path-22" stroke="#414141" stroke-linecap="round"></path>
                    <path d="M49.943662,21.9823944 L49.943662,27.3679674 L52.943662,27.3679674 L52.943662,21.9823944 L49.943662,21.9823944 Z" id="Path-23" stroke="#414141"></path>
                    <path d="M23.1021127,29.1225652 L23.1021127,27.8738338" id="Path-17" stroke="#414141" stroke-linecap="round"></path>
                    <path d="M30.3053016,36.9512916 L30.8894728,35.995706" id="Path-17" stroke="#414141" stroke-linecap="round" transform="translate(30.597387, 36.473499) rotate(-113.000000) translate(-30.597387, -36.473499) "></path>
                    <path d="M28.7514953,31.3097532 L28.7514953,30.1871881" id="Path-17" stroke="#414141" stroke-linecap="round" transform="translate(28.751495, 30.748471) rotate(47.000000) translate(-28.751495, -30.748471) "></path>
                    <path d="M27.7504401,42.3117227 L27.7504401,41.1891575" id="Path-17" stroke="#414141" stroke-linecap="round" transform="translate(27.750440, 41.750440) rotate(-225.000000) translate(-27.750440, -41.750440) "></path>
                    <circle id="Oval" stroke="#414141" fill="#FE7998" cx="13.5316901" cy="40.5316901" r="1.53169014"></circle>
                </g>
            </g>
        </g>
    </g>
</svg>