<?xml version="1.0" encoding="UTF-8"?>
<svg width="26px" height="24px" viewBox="0 0 26 24" version="1.1" xmlns="http://www.w3.org/2000/svg" xmlns:xlink="http://www.w3.org/1999/xlink">
    <!-- Generator: Sketch 52.3 (67297) - http://www.bohemiancoding.com/sketch -->
    <title>Path 14</title>
    <desc>Created with Sketch.</desc>
    <g id="Symbols" stroke="none" stroke-width="1" fill="none" fill-rule="evenodd">
        <g id="Bar-Menu" transform="translate(-31.000000, -7.000000)" stroke="#414141" stroke-width="2">
            <g id="Home" transform="translate(24.000000, 7.000000)">
                <path d="M18.1229814,22.9864366 L18.9411881,16.8498868 C19.0452584,16.0693591 19.7110626,15.4864366 20.4984978,15.4864366 C21.285933,15.4864366 21.9517372,16.0693591 22.0558076,16.8498868 L22.8742443,22.9881617 L25.000985,22.9923559 C26.105554,22.9934455 27.0018674,22.0988988 27.002957,20.9943298 C27.0029578,20.9933433 27.0029578,20.9933433 27.0029581,20.9928119 L26.9995452,13.4932084 L30.3768616,13.4903325 C30.9291462,13.4898623 31.37648,13.0417659 31.3760097,12.4894814 C31.3757878,12.228886 31.2738476,11.9786711 31.0918951,11.7921147 L21.154054,1.60282025 C20.7736518,1.21279285 20.1510342,1.199049 19.7537917,1.57191044 L8.87785388,11.78033 C8.47516758,12.1583011 8.45513199,12.791149 8.83310314,13.1938353 C9.02103228,13.394053 9.2830252,13.5081815 9.55762103,13.5094474 L13.9984978,13.5299208 L13.9984978,20.9864366 C13.9984978,22.0910061 14.8939283,22.9864366 15.9984978,22.9864366 L18.1229814,22.9864366 Z" id="Path-14"></path>
            </g>
        </g>
    </g>
</svg>