<?xml version="1.0" encoding="UTF-8"?>
<svg width="80px" height="80px" viewBox="0 0 80 80" version="1.1" xmlns="http://www.w3.org/2000/svg" xmlns:xlink="http://www.w3.org/1999/xlink">
    <!-- Generator: Sketch 52.3 (67297) - http://www.bohemiancoding.com/sketch -->
    <title>Kategori 2</title>
    <desc>Created with Sketch.</desc>
    <defs>
        <rect id="path-1" x="0" y="0" width="80" height="80" rx="8"></rect>
    </defs>
    <g id="Page-1" stroke="none" stroke-width="1" fill="none" fill-rule="evenodd">
        <g id="Start-Screen" transform="translate(-137.000000, -334.000000)">
            <g id="Kategori-2" transform="translate(137.000000, 334.000000)">
                <g id="Oval">
                    <mask id="mask-2" fill="white">
                        <use xlink:href="#path-1"></use>
                    </mask>
                    <use id="Mask" fill="#FFFFFF" xlink:href="#path-1"></use>
                </g>
                <g id="pump" transform="translate(10.000000, 9.500000)">
                    <circle id="Oval" fill="#E7F3F0" cx="30" cy="30.75" r="30"></circle>
                    <path d="M18.9363057,20.5923567 C17.4834802,20.5923567 16.3057325,21.7701044 16.3057325,23.2229299 L16.3057325,24.8535032 C16.3057325,25.4057879 16.7534477,25.8535032 17.3057325,25.8535032 L31.4585987,25.8535032 C32.0108835,25.8535032 32.4585987,25.4057879 32.4585987,24.8535032 L32.4585987,23.2229299 C32.4585987,21.7701044 31.280851,20.5923567 29.8280255,20.5923567 L18.9363057,20.5923567 Z" id="Rectangle" stroke="#414141" stroke-width="2" fill="#FFDB9F"></path>
                    <rect id="Rectangle" stroke="#414141" stroke-width="2" fill="#FFC6D3" x="12.2929936" y="26.4713376" width="23.9872611" height="29.5286624" rx="11.9936306"></rect>
                    <path d="M21.9289215,38.1713436 C28.000536,38.1713436 35.2802546,31.6558148 35.2802546,38.1713436 L35.2802546,43.2025914 C35.2802546,49.7181203 31.4270319,55 24.2866241,55 C17.1462164,55 13.2929936,49.7181203 13.2929936,43.2025914 L13.2929936,38.1713436 C13.2929936,31.6558148 15.857307,38.1713436 21.9289215,38.1713436 Z" id="Rectangle" fill="#FFFFFF"></path>
                    <path d="M21.7223607,8.31845549 C21.6519389,8.30299705 21.5800519,8.29519983 21.5079534,8.29519983 C20.9556687,8.29519983 20.5079534,8.74291508 20.5079534,9.29519983 L20.5079534,16.7422958 C20.5079534,16.8143943 20.5157506,16.8862813 20.5312091,16.9567031 C20.649623,17.4961441 21.1829197,17.837454 21.7223607,17.7190401 L25.5567556,16.8773437 C26.0154998,16.7766437 26.3423483,16.370266 26.3423483,15.9005993 L26.3423483,10.1368963 C26.3423483,9.66722965 26.0154998,9.26085188 25.5567556,9.16015193 L21.7223607,8.31845549 Z" id="Rectangle" stroke="#414141" stroke-width="2" fill="#D8D8D8" transform="translate(23.425151, 13.019089) rotate(22.000000) translate(-23.425151, -13.019089) "></path>
                    <path d="M15.3654723,2.14110827 L10.0476768,14.0376597 C9.59691512,15.0460682 10.0489771,16.2289594 11.0573856,16.6797211 C11.4254586,16.8442509 11.8346639,16.8936975 12.2313328,16.8215759 L19.5,15.5 L22,9 L19.0254468,2.15971584 C18.5849617,1.1467762 17.4067282,0.682710061 16.3937886,1.1231951 C15.935991,1.32227213 15.5691938,1.6853585 15.3654723,2.14110827 Z" id="Path-6" stroke="#414141" stroke-width="2" fill="#F7F7F7"></path>
                    <g id="Group" transform="translate(15.914053, 8.626355) rotate(-135.000000) translate(-15.914053, -8.626355) translate(11.914053, 1.626355)" stroke="#414141" stroke-linecap="round">
                        <path d="M-1.14766575e-13,1.52816148 L2.69199326,1.47183852" id="Path-7" transform="translate(1.345997, 1.500000) rotate(68.000000) translate(-1.345997, -1.500000) "></path>
                        <path d="M2.50310709,10.4042337 L8.06310751,10.3071835" id="Path-7" transform="translate(5.076168, 10.368519) rotate(68.000000) translate(-5.076168, -10.368519) "></path>
                        <path d="M2.33706965,5.13578107 L3.29248366,5.13578107" id="Path-7" transform="translate(2.814777, 5.135781) rotate(68.000000) translate(-2.814777, -5.135781) "></path>
                    </g>
                    <path d="M15.5796178,35.4585987 L18.4091787,35.4585987" id="Path-8" stroke="#414141" stroke-linecap="round"></path>
                    <path d="M20.4012739,35.4585987 L21.3566879,35.4585987" id="Path-8" stroke="#414141" stroke-linecap="round"></path>
                    <path d="M15.5796178,39.2802548 L17.4904459,39.2802548" id="Path-8" stroke="#414141" stroke-linecap="round"></path>
                    <path d="M15.5796178,43.1019108 L18.4091787,43.1019108" id="Path-8" stroke="#414141" stroke-linecap="round"></path>
                    <path d="M15.5796178,46.9235669 L17.4904459,46.9235669" id="Path-8" stroke="#414141" stroke-linecap="round"></path>
                    <path d="M28,19.6878981 C30.3248408,15.2292994 32.9363057,13 35.8343949,13 C40.1815287,13 42.1433121,16.9267516 45.4872611,17.5955414 C47.7165605,18.0414013 50.104034,17.1913961 52.6496815,15.0455257" id="Path-9" stroke="#414141" stroke-width="2" stroke-linecap="round"></path>
                    <path d="M17,33.3923048 C17.5,32 19.5,29.5 23,29.5" id="Path-13" stroke="#FFFFFF" opacity="0.5" stroke-linecap="round"></path>
                </g>
            </g>
        </g>
    </g>
</svg>