<?xml version="1.0" encoding="UTF-8"?>
<svg width="80px" height="80px" viewBox="0 0 80 80" version="1.1" xmlns="http://www.w3.org/2000/svg" xmlns:xlink="http://www.w3.org/1999/xlink">
    <!-- Generator: Sketch 52.3 (67297) - http://www.bohemiancoding.com/sketch -->
    <title>Kategori 1</title>
    <desc>Created with Sketch.</desc>
    <defs>
        <rect id="path-1" x="0" y="0" width="80" height="80" rx="8"></rect>
    </defs>
    <g id="Page-1" stroke="none" stroke-width="1" fill="none" fill-rule="evenodd">
        <g id="Start-Screen" transform="translate(-17.000000, -334.000000)">
            <g id="Kategori-1" transform="translate(17.000000, 334.000000)">
                <g id="Oval">
                    <mask id="mask-2" fill="white">
                        <use xlink:href="#path-1"></use>
                    </mask>
                    <use id="Mask" fill="#FFFFFF" xlink:href="#path-1"></use>
                </g>
                <g id="stroller" transform="translate(9.000000, 9.500000)">
                    <circle id="Oval" fill="#E7F3F0" cx="31" cy="30.75" r="30"></circle>
                    <path d="M27.852459,22.147541 L2.99498969,22.147541 C1.89042019,22.147541 0.994989693,23.0429715 0.994989693,24.147541 C0.994989693,24.4996808 1.08796419,24.8455783 1.26451336,25.1502631 L6.3995792,34.0122496 C8.00911625,36.7899541 10.9763875,38.5 14.1867227,38.5 L41.4736842,38.5 C44.863844,38.5 47.966379,36.5949346 49.5000588,33.5715244 L53.8215779,25.0523242 C54.3212759,24.0672477 53.9277988,22.8636001 52.9427223,22.3639022 C52.6623269,22.2216665 52.3523474,22.147541 52.0379391,22.147541 L36.704918,22.147541" id="Path" stroke="#414141" stroke-width="2" fill="#B8E986" stroke-linecap="round"></path>
                    <path d="M26.2260183,2.31532072 C18,2.31532072 13.3611369,5.28187793 9,10 C-0.5,20.277632 7,20.5897442 25.2529683,17.4770533 C27.7356719,17.0536762 26.0999866,12.4313331 26.2736928,10 C26.4474428,7.56805575 26.4474428,5.5 26.2736928,3.19016928 L26.2260183,2.31532072 Z" id="Path-11" fill="#FFDB9F"></path>
                    <path d="M14.3770492,3.26229508 L24.9811396,16.8961256 C25.3202096,17.3320728 25.9484852,17.4106072 26.3844324,17.0715372 C26.628019,16.882081 26.7704918,16.5907754 26.7704918,16.282185 L26.770534,2.11256611 C26.770534,1.58882066 26.3664383,1.1537953 25.8441141,1.11523761 C19.1922428,0.624200003 13.8289042,2.2907055 9.75409836,6.1147541 C6.33060156,9.32757417 3.88010023,12.7730671 2.40259438,16.4512328 L2.40260001,16.4512351 C1.99087597,17.4761983 2.48800459,18.6408635 3.51296786,19.0525875 C3.74998173,19.1477952 4.00303882,19.1967213 4.25846017,19.1967213 L22.5344238,19.1967213 C23.0867086,19.1967213 23.5344238,18.7490061 23.5344238,18.1967213 C23.5344238,17.8179493 23.3204214,17.4716861 22.9816374,17.3022941 L6.90163934,9.26229508" id="Path-2" stroke="#414141" stroke-width="2" stroke-linecap="round"></path>
                    <path d="M45.3278689,21.7540984 L50.7377049,9.26229508 L59.2704918,9.26229508 C60.1713497,9.26229508 60.9016393,9.99258471 60.9016393,10.8934426 L60.9016393,10.8934426 C60.9016393,11.7943005 60.1713497,12.5245902 59.2704918,12.5245902 L53.3947941,12.5245902 L51.5,17.5" id="Path-3" stroke="#414141" stroke-width="2" stroke-linecap="round"></path>
                    <polyline id="Path-4" stroke="#414141" stroke-width="2" stroke-linecap="round" points="21.9592866 42.9421219 26.3855161 38.5158924 31.3035489 38.5158924 35.1396145 42.9421219"></polyline>
                    <circle id="Oval" stroke="#414141" stroke-width="2" cx="19.5860398" cy="47.5261449" r="4.5"></circle>
                    <circle id="Oval" stroke="#414141" stroke-width="2" cx="38.1225536" cy="47.5261449" r="4.5"></circle>
                    <path d="M31.6885246,22.147541 L33.6885246,22.147541" id="Path-5" stroke="#414141" stroke-width="2" stroke-linecap="round"></path>
                </g>
            </g>
        </g>
    </g>
</svg>