<?xml version="1.0" encoding="UTF-8"?>
<svg width="80px" height="80px" viewBox="0 0 80 80" version="1.1" xmlns="http://www.w3.org/2000/svg" xmlns:xlink="http://www.w3.org/1999/xlink">
    <!-- Generator: Sketch 52.3 (67297) - http://www.bohemiancoding.com/sketch -->
    <title>Kategori 4</title>
    <desc>Created with Sketch.</desc>
    <defs>
        <rect id="path-1" x="0" y="0" width="80" height="80" rx="8"></rect>
    </defs>
    <g id="Page-1" stroke="none" stroke-width="1" fill="none" fill-rule="evenodd">
        <g id="Start-Screen" transform="translate(-17.000000, -452.000000)">
            <g id="Kategori-4" transform="translate(17.000000, 452.000000)">
                <g id="Oval">
                    <mask id="mask-2" fill="white">
                        <use xlink:href="#path-1"></use>
                    </mask>
                    <use id="Mask" fill="#FFFFFF" xlink:href="#path-1"></use>
                </g>
                <g id="toys" transform="translate(10.000000, 8.000000)">
                    <circle id="Oval" fill="#E7F3F0" cx="30" cy="34" r="30"></circle>
                    <rect id="Rectangle" stroke="#414141" stroke-width="2" fill="#FFDB9F" x="3" y="32" width="22" height="22" rx="5"></rect>
                    <rect id="Rectangle" stroke="#414141" stroke-width="2" fill="#FFD0DB" transform="translate(44.000000, 43.000000) rotate(12.000000) translate(-44.000000, -43.000000) " x="33" y="32" width="22" height="22" rx="5"></rect>
                    <rect id="Rectangle" stroke="#414141" stroke-width="2" fill="#B8E986" transform="translate(21.000000, 17.000000) rotate(-30.000000) translate(-21.000000, -17.000000) " x="10" y="6" width="22" height="22" rx="5"></rect>
                    <path d="M21.3851397,11.8692413 L25.1131397,21.1972413 C25.1611397,21.3092413 25.1771397,21.4372413 25.1771397,21.5492413 C25.1771397,22.0292413 24.8091397,22.4772413 24.2491397,22.4772413 C23.8811397,22.4772413 23.5291397,22.2532413 23.3851397,21.8852413 L22.6811397,20.1412413 L18.3451397,20.1412413 L17.6411397,21.8852413 C17.4971397,22.2532413 17.1451397,22.4772413 16.7771397,22.4772413 C16.2331397,22.4772413 15.8491397,22.0132413 15.8491397,21.5492413 C15.8491397,21.4212413 15.8651397,21.3092413 15.9131397,21.1972413 L19.6411397,11.8692413 C19.7851397,11.5172413 20.1371397,11.2772413 20.5211397,11.2772413 C20.8891397,11.2772413 21.2411397,11.5172413 21.3851397,11.8692413 Z M19.0971397,18.2852413 L21.9291397,18.2852413 L20.5211397,14.7172413 L19.0971397,18.2852413 Z" id="A" fill="#414141" transform="translate(20.513140, 16.877241) rotate(-30.000000) translate(-20.513140, -16.877241) "></path>
                    <path d="M45.9709235,46.5549077 C46.4349235,46.3149077 46.9949235,46.4749077 47.2509235,46.9389077 C47.4909235,47.3869077 47.3149235,47.9469077 46.8669235,48.2029077 C46.0509235,48.6349077 45.1389235,48.8749077 44.1949235,48.8749077 C41.1069235,48.8749077 38.5949235,46.3629077 38.5949235,43.2749077 C38.5949235,40.1869077 41.1069235,37.6749077 44.1949235,37.6749077 C45.1389235,37.6749077 46.0509235,37.9149077 46.8669235,38.3469077 C47.3149235,38.6029077 47.4909235,39.1629077 47.2509235,39.6109077 C46.9949235,40.0749077 46.4349235,40.2349077 45.9709235,39.9949077 C45.4429235,39.6909077 44.8189235,39.5469077 44.1949235,39.5469077 C42.1469235,39.5469077 40.4669235,41.2109077 40.4669235,43.2749077 C40.4669235,45.3389077 42.1469235,47.0029077 44.1949235,47.0029077 C44.8189235,47.0029077 45.4429235,46.8589077 45.9709235,46.5549077 Z" id="C" fill="#414141" transform="translate(42.976719, 43.274908) rotate(11.000000) translate(-42.976719, -43.274908) "></path>
                    <path d="M16.796,42.6 C17.724,43.208 18.236,44.232 18.236,45.496 C18.236,47.656 16.46,49 14.956,49 L11.692,49 C11.18,49 10.764,48.584 10.764,48.072 L10.764,38.728 C10.764,38.216 11.18,37.8 11.692,37.8 L14.268,37.8 C14.348,37.8 15.036,37.832 15.724,38.168 C16.748,38.68 17.292,39.608 17.292,40.84 C17.292,41.512 17.116,42.12 16.796,42.6 Z M12.636,39.672 L12.636,42.008 L14.028,42.008 C14.268,42.008 15.436,41.96 15.436,40.84 C15.436,39.768 14.7,39.672 14.396,39.672 L12.636,39.672 Z M15.676,46.904 C16.3,46.552 16.364,45.928 16.364,45.496 C16.364,44.904 15.996,43.864 14.844,43.864 L12.636,43.864 L12.636,47.128 L14.844,47.128 C14.86,47.128 15.292,47.112 15.676,46.904 Z" id="B" fill="#414141"></path>
                    <path d="M6,38 L6,36 C6,35.4477153 6.44771525,35 7,35 L9.5,35" id="Path-12" stroke="#FFFFFF" stroke-linecap="round"></path>
                    <path d="M37.5521416,36.4018221 L37.5521416,34.4018221 C37.5521416,33.8495373 37.9998569,33.4018221 38.5521416,33.4018221 L41.0521416,33.4018221" id="Path-12" stroke="#FFFFFF" stroke-linecap="round" transform="translate(39.302142, 34.901822) rotate(15.000000) translate(-39.302142, -34.901822) "></path>
                    <path d="M10.5225999,15.6870676 L10.5225999,13.6870676 C10.5225999,13.1347828 10.9703151,12.6870676 11.5225999,12.6870676 L14.0225999,12.6870676" id="Path-12" stroke="#FFFFFF" stroke-linecap="round" transform="translate(12.272600, 14.187068) rotate(-31.000000) translate(-12.272600, -14.187068) "></path>
                </g>
            </g>
        </g>
    </g>
</svg>