<?xml version="1.0" encoding="UTF-8"?>
<svg width="23px" height="24px" viewBox="0 0 23 24" version="1.1" xmlns="http://www.w3.org/2000/svg" xmlns:xlink="http://www.w3.org/1999/xlink">
    <!-- Generator: Sketch 52.3 (67297) - http://www.bohemiancoding.com/sketch -->
    <title>user</title>
    <desc>Created with Sketch.</desc>
    <g id="Symbols" stroke="none" stroke-width="1" fill="none" fill-rule="evenodd">
        <g id="Bar-Menu" transform="translate(-314.000000, -8.000000)" stroke="#414141" stroke-width="2">
            <g id="User" transform="translate(302.000000, 7.000000)">
                <g id="user" transform="translate(12.500000, 0.051534)">
                    <path d="M6.77523599,15.5241011 L6.77524127,15.5240827 C4.61989345,14.9063005 2.37103503,16.148962 1.74706185,18.3025257 L1.13644074,20.4100064 C1.08403138,20.5908907 1.05743265,20.7782706 1.05743265,20.9665943 C1.05743265,22.0711638 1.95286315,22.9665943 3.05743265,22.9665943 L19.0722209,22.9665943 C19.2605446,22.9665943 19.4479245,22.9399956 19.6288088,22.8875862 C20.6897433,22.5801912 21.3006078,21.470941 20.9932128,20.4100064 L20.3825917,18.3025257 C19.7586182,16.1489608 17.5097614,14.9063041 15.3544175,15.5241011 C14.025387,15.905038 12.5948157,16.0945424 11.0648268,16.0945424 C9.53483782,16.0945424 8.10426658,15.905038 6.77523599,15.5241011 Z" id="Rectangle"></path>
                    <path d="M10.6845447,1.94846649 C8.48024017,1.94846649 6.69138805,3.73178917 6.68456389,5.93608315 L6.67522906,8.95135852 C6.67521308,8.95755017 6.67521308,8.95755017 6.67520989,8.96374185 C6.67520989,11.1728808 8.46607089,12.9637418 10.6752099,12.9637418 L11.475162,12.9637418 C13.6794665,12.9637418 15.4683186,11.1804192 15.4751428,8.97612518 L15.4844776,5.96084982 C15.4844936,5.95465816 15.4844936,5.95465816 15.4844968,5.94846649 C15.4844968,3.73932749 13.6936358,1.94846649 11.4844968,1.94846649 L10.6845447,1.94846649 Z" id="Rectangle"></path>
                </g>
            </g>
        </g>
    </g>
</svg>